<svg id="COCO_Duotone_Arrow_-_Left" data-name="COCO/Duotone/Arrow - Left" xmlns="http://www.w3.org/2000/svg" width="24" height="24" viewBox="0 0 24 24">
  <path id="Vector" d="M.353,5.95a7.511,7.511,0,0,1,5.6-5.6,13.354,13.354,0,0,1,6.1,0,7.511,7.511,0,0,1,5.6,5.6,13.354,13.354,0,0,1,0,6.1,7.511,7.511,0,0,1-5.6,5.6,13.354,13.354,0,0,1-6.1,0,7.511,7.511,0,0,1-5.6-5.6A13.354,13.354,0,0,1,.353,5.95Z" transform="translate(3 3)" fill="rgba(54,56,83,0.15)" stroke="#363853" stroke-width="1.5"/>
  <path id="Vector-2" data-name="Vector" d="M0,2.5H7m0,0L4.5,0M7,2.5,4.5,5" transform="translate(15.5 14.5) rotate(180)" fill="rgba(54,56,83,0.15)" stroke="#363853" stroke-linecap="round" stroke-linejoin="round" stroke-width="1.5"/>
</svg>
